<svg enable-background="new 0 0 1000 509.7" height="225.779898" viewBox="0 0 1000 509.7" width="442.909226" xmlns="http://www.w3.org/2000/svg"><path d="m999 174.7c-1.7-16-6.4-31.2-13.1-45.8-6.9-15-15.9-28.6-26.5-41.2-15.3-18.1-33.5-32.7-53.8-44.9-24.7-14.8-51.3-24.6-79.2-31-9.3-2.1-18.7-3.5-28.1-4.8-7-1-14.2-1.7-21.3-2.1-11.3-.6-22.5-1.1-33.8-1-9 .1-18 .6-26.9 1.5-12 1.3-24 2.7-36 4.7-22.9 3.8-45.5 9.5-67.3 17.5-15.3 5.6-25.4 16-30.1 31.5-1.7 5.4-3.4 10.8-4.7 16.3-1.7 7.4-.8 14.7 1.3 21.9 1.6 5.7 3.3 11.3 5.1 17.5-24.2-12.4-49.4-18.8-76-19.9-26.5-1.1-52.2 3.5-76.7 13.5-3.3-6.1-6.3-12.2-9.7-17.9-8.1-13.7-18.3-25.7-30.1-36.3-24.8-22.5-53.8-37.2-86-45.6-10.1-2.6-20.3-4.5-30.6-6.2-6.1-1.1-12.4-1.1-18.5-1.7-.4 0-.9-.3-1.3-.5h-35c-.5.2-.9.5-1.3.5-8.4.9-16.8 1.6-25.1 2.7-18.6 2.3-36.8 6.9-54.7 12.5-32.2 10.1-62.8 23.5-91.7 40.9-10.7 6.5-21.2 13.4-31.2 21-8.8 6.6-14.1 16-16.1 27-.1.3-.3.7-.5 1v14.1c1 3.6 1.6 7.3 3.3 10.6 3.2 6.4 6.8 12.5 10.6 18.6 8.4 13.5 16.7 27 25.4 40.4 7.1 10.8 17.2 17.5 29.8 20.4 3.9.9 7.9 1.7 11.8 2.7.7.2 1.6 1 1.7 1.7 1.1 6 2.1 12 3.2 18 1.4 7.9 2.7 15.9 4 23.8 1.3 7.8 2.5 15.6 3.8 23.4 1.3 7.9 2.7 15.7 4 23.6 1.2 7.1 2.2 14.1 3.3 21.2 1.4 8.3 2.7 16.6 4 24.9 1.1 7.2 2.2 14.3 3.3 21.4s2.4 14.3 3.5 21.4 2.1 14.1 3.3 21.2c1.3 8.2 2.6 16.3 3.9 24.5s2.8 16.4 3.9 24.7c1.4 10.4 3.8 20.4 10.6 28.9 7.4 9.3 16.9 15.1 28.4 17.8 1.5.4 3 .7 4.5 1.1h13.1c4.8-1 9.6-2.1 14.5-3.1 12.9-2.7 25.8-5.4 38.7-8.1 9.3-2 18.6-4.1 27.9-5.9 9.7-1.9 17.9-6.6 25.1-13.1 4.9-4.5 10.2-8.7 14.6-13.7 5.8-6.7 8.5-15 9.5-23.9.9-8-1.2-15.6-2.9-23.2-3.7-16.8-7.6-33.7-11.4-50.5-2.2-9.8-4.4-19.6-6.7-29.4-.1-.4-.1-.8-.1-1 12-4.7 23.8-9.4 35.5-14 17.3 59 53.5 101.7 110.9 124 57.1 22.1 112.4 15.5 164.9-15.8.2 3.2.4 6.5.8 9.9.8 7.6 4 14.4 8.5 20.5 2.6 3.7 5.1 7.4 8 10.9 7.8 9.2 17.7 14.6 29.6 16.1 6.4.8 12.9 1.1 19.3 1.6 7.8.6 15.5 1.4 23.3 2 5.3.4 10.6.7 15.9 1.1 8.3.6 16.6 1.3 24.9 1.9 9.5.7 18.4-1.5 26.8-6 13.2-7 21.4-17.8 25-32.2.8-3.3 1.1-6.6 1.3-10 .6-11.4 1-22.9 1.6-34.3.3-6.4.7-12.6 1-18.9.5-10 1-20.1 1.5-30.1.2-3.1.4-6.2.5-9.3 0-1.5.4-2.1 2-2.3 9.5-.8 19-1.6 28.5-2.6 23.8-2.6 46.9-8.2 69.3-16.6 19.6-7.5 38.1-17.1 54.6-30.1 24.9-19.6 43.7-43.6 52.7-74.4 2.4-8.1 4.2-16.3 4.6-24.7 0-.4.3-.7.5-1v-22.5c-.5-2.7-1-4.7-1.2-6.8" fill="#d12128"/><g fill="#fff"><path d="m403.9 134.4c-.7-1.7-1.1-3.6-1.8-5.4-7.9-20.2-21-36.7-37.8-50.3-12.6-10.2-26.7-18-41.7-24.1-18.8-7.6-38.3-11.8-58.4-13.8-7.5-.7-15-.8-23.2-1.3-2.4.2-5.6.4-8.7.7-7 .5-14.1.7-21.1 1.6-9.5 1.3-19 2.8-28.4 4.6-23.1 4.5-45.1 12.3-66.7 21.4-16 6.7-31.5 14.4-46.3 23.4-7.5 4.6-15.1 9.1-21.8 14.6-7.5 6-8.8 14.5-3.5 23 8.2 13.2 16.4 26.4 24.6 39.5 1.7 2.7 3.3 5.4 6.9 6.2 5.3 1.1 10.2.4 14.7-2.5 5.1-3.3 10-6.8 15.2-10 1.1-.7 3.1-1.2 4-.7 2 1.4 3.5 3.3 3.8 6.2.7 5.9 1.8 11.8 2.7 17.8 1.1 7.1 2.3 14.2 3.5 21.3l3.3 21c1.2 7.1 2.4 14.2 3.5 21.3 1.1 7 2.2 14 3.3 21.1 1.1 7.2 2.3 14.3 3.5 21.5.9 5.9 1.9 11.8 2.8 17.8 1.1 7 2.3 14 3.5 21 .9 6 1.8 12 2.8 18 1.1 7 2.4 14 3.5 21 1.1 7.1 2.1 14.2 3.3 21.3 1.1 7.2 2.4 14.3 3.6 21.5 1.1 6.9 2.1 13.9 3.2 20.8 1.3 8.4 2.6 16.8 4.2 25.1.7 3.9 1.6 7.9 3.2 11.6 1.7 4 6.8 6.6 10.1 5.9 11-2.2 22-4.5 33-6.8 14.8-3.1 29.5-6.4 44.4-9.2 10.5-2 15.6-9.6 13.7-18.4-3.5-16.4-7.2-32.7-10.9-49.1-3.5-15.7-7-31.4-10.4-47.1-2-9-3.7-18.1-5.8-27.2-.6-2.7.9-3.1 2.7-3.6 16.6-4.3 32.9-9.5 48.8-16.1 14-5.8 27.7-12.3 40.5-20.5.9-.6 1.9-1.8 2.1-2.9.4-2.9.3-5.9.7-8.8 1.3-9.1 2.1-18.4 4.1-27.4 4.5-20.4 13-39 24.7-56.3 6.8-10 14.4-19.4 23.4-27.5 5.9-5.3 12.1-10.3 18.3-15.4.9-1.3 1.9-2.6.9-4.8zm-100.5 73.6c-7.3 16-18.9 28-34 36.8-11.3 6.7-23.5 10.8-36.2 13.4-2.2.5-4.4.7-6.6 1.1-1.9.3-4.9-2.4-5.5-5-2.9-12.9-5.9-25.9-8.9-38.8-3.7-16.4-7.4-32.8-11.1-49.2-3.5-15.6-7.1-31.2-10.7-46.7-.5-2.4.2-4 2.7-4.5 7.3-1.4 14.6-2.7 22-3.8 3.4-.5 6.9-.5 8.8-.7 22.1.3 41.3 5 58 17.5 14.7 11 23.9 25.7 27 43.8 2.1 12.4-.3 24.5-5.5 36.1z"/><path d="m609.1 174.5c-28.8-29.2-64.1-44.6-105-45.2-42.9-.6-79.9 14.5-110.2 45.3-28.6 29-42.9 64.3-43 104.7 0 40 14 75.1 42.4 103.7 28.2 28.5 62.7 43.8 102.8 45.1 45.1 1.3 83.8-14.5 115.1-47.1 27.2-28.2 39.8-62.6 40.5-93.9.2-48.2-15.7-85.3-42.6-112.6zm-99.1 122.8c-33.9-.1-63.5-26.6-62.5-67.1.8-32.9 27.7-60.6 63.3-60.8 34.7.3 63.5 27.8 62.9 63.8-.6 36.8-27 64.1-63.7 64.1z"/><path d="m960.1 175.8c-2.4-14.5-7.6-28.1-15.2-40.7-10.5-17.6-23.9-32.5-40.1-45.1-14.5-11.3-30.3-20.4-47.2-27.6-22.5-9.6-46.1-15.4-70.4-18.5-8.7-1.1-17.5-2-26.3-2.1-12.4-.1-24.8.4-37.2 1-9.1.5-18.2 1.6-27.2 2.6-7.2.8-14.3 1.7-21.3 3.2-12.2 2.7-24.4 5.7-36.6 8.9-4.5 1.2-8.9 2.8-12.9 4.9-4.7 2.5-8.3 6.2-7.7 12.2.3 2.5 1 4.9 1.7 7.3 4.1 14.7 8.2 29.3 12.3 43.9 3 10.9 10.8 14.2 20.7 12.1 6.5-1.4 12.8-3.8 19.2-5.8 2.1-.7 3-.1 2.9 2-.2 3.2-.6 6.4-.9 9.6-.8 7.9-1.8 15.8-2.7 23.8-1.1 9.2-2.4 18.3-3.5 27.5-1 8.3-2.1 16.7-3.1 25-.5 4-.6 7.9.6 12 3.4 11.3 5.3 22.9 5.8 34.6.6 13.6.1 27.2-2.3 40.6-3.1 16.9-8.6 33-16.5 48.2-1.7 3.2-4.1 6.3-4.8 9.7-1.4 6.3-1.7 12.8-2.4 19.2-.6 4.9-1.1 9.8-1.7 14.7-.8 6.7-1.7 13.5-2.5 20.3-.6 5.1-1.3 10.2-2 15.4-.7 5.8.1 11 4.9 15 3.6 3 8 3 12.2 3.4 6.1.7 12.2 1.1 18.2 1.6l25.2 2.1c7.4.6 14.8 1 22.2 1.6 2.5.2 5 .2 7.5.7 6.7 1.3 12.7-1.7 14.5-8.4 1.1-4.2 1.3-8.6 1.6-13 .5-7.3.8-14.7 1.2-22 .2-3.2.3-6.4.5-9.6.6-9.5 1.4-18.9 2-28.4.3-5.3.7-10.7 1-16 .6-9.1 1-18.3 1.6-27.4.3-5.1.7-10.1 1-15.2.1-2.3 1.5-2.8 3.3-2.8h16.6v-.1c6.5 0 13.1.2 19.5-.1 7.3-.3 14.5-.6 21.7-1.6 10-1.4 20.1-3.1 29.9-5.2 15.4-3.2 30.1-8.1 44.4-14.5 21.3-9.6 39.6-22.8 53.8-41.5 11.9-15.7 18.8-33.3 19.8-52.9.7-8.2 0-16.5-1.3-24.6zm-105.3 47.5c-13.8 20.6-32.9 33.3-57.4 37.6-7.3 1.3-14.7 1.9-20.7 2.6-6.9-.6-12.5-1-18-1.5-1.5-.2-2.4-.8-2.3-2.5.4-7.6.7-15.2 1-22.8 0-.4 0-.7 0-1.1.2-6.3.3-12.7.5-19 .3-7.5.7-15 1-22.5.3-7.2.7-14.5 1-21.8.4-7.6.7-15.2 1-22.8.4-7.3.4-14.7 1.2-22 .4-3.5-.6-7.6 2.4-10.5 1.1-1 2.6-2.3 3.9-2.3 25.2.6 48.5 7.3 68.4 23.3 13.7 11 23.1 25.1 26.5 42.5 3.1 15.3.1 29.8-8.5 42.8z"/></g></svg>